<?xml version="1.0" standalone="no"?>
<!DOCTYPE svg PUBLIC "-//W3C//DTD SVG 20010904//EN"
 "http://www.w3.org/TR/2001/REC-SVG-20010904/DTD/svg10.dtd">
<svg version="1.0" xmlns="http://www.w3.org/2000/svg"
 width="267.000000pt" height="185.000000pt" viewBox="0 0 267.000000 185.000000"
 preserveAspectRatio="xMidYMid meet">

<g transform="translate(0.000000,185.000000) scale(0.100000,-0.100000)"
fill="#000000" stroke="none">
<path d="M440 1613 c0 -14 30 -53 41 -53 6 0 9 12 7 28 -2 19 -9 28 -25 30
-13 2 -23 0 -23 -5z"/>
<path d="M710 1606 c0 -2 7 -7 16 -10 8 -3 12 -2 9 4 -6 10 -25 14 -25 6z"/>
<path d="M1674 1564 c-18 -14 -18 -15 4 -4 12 6 22 13 22 15 0 8 -5 6 -26 -11z"/>
<path d="M995 1530 c3 -5 11 -10 16 -10 6 0 7 5 4 10 -3 6 -11 10 -16 10 -6 0
-7 -4 -4 -10z"/>
<path d="M2180 1510 c0 -5 5 -10 11 -10 5 0 7 5 4 10 -3 6 -8 10 -11 10 -2 0
-4 -4 -4 -10z"/>
<path d="M1982 1494 c-12 -8 -29 -30 -38 -47 l-16 -32 28 26 c16 15 44 34 62
43 17 9 32 19 32 21 0 11 -47 4 -68 -11z"/>
<path d="M2106 1469 c-46 -5 -89 -16 -105 -26 l-26 -18 45 -6 c25 -4 55 -5 68
-2 18 4 22 1 22 -18 0 -19 2 -21 10 -9 5 8 6 26 3 39 -4 17 -2 22 6 17 6 -4
11 -16 11 -27 0 -12 10 -23 25 -29 35 -13 31 -27 -7 -24 -18 2 -25 1 -15 -2
17 -6 17 -7 2 -119 l-4 -30 27 34 c17 22 36 69 53 132 l25 99 -30 -1 c-17 -1
-66 -5 -110 -10z"/>
<path d="M495 1440 c-3 -5 -2 -10 4 -10 5 0 13 5 16 10 3 6 2 10 -4 10 -5 0
-13 -4 -16 -10z"/>
<path d="M640 1445 c0 -3 18 -12 40 -21 22 -9 49 -28 60 -42 24 -30 26 -22 5
18 -8 16 -24 34 -34 40 -20 10 -71 14 -71 5z"/>
<path d="M1825 1434 c9 -9 14 -23 11 -30 -4 -10 3 -14 24 -14 17 0 30 -4 30
-10 0 -5 -5 -10 -11 -10 -6 0 -19 -10 -29 -22 -16 -20 -21 -21 -40 -10 -20 12
-21 11 -18 -15 3 -24 8 -28 37 -31 39 -4 50 5 67 54 12 35 11 37 -24 70 -37
34 -80 51 -47 18z"/>
<path d="M1570 1388 c0 -25 3 -29 10 -18 13 20 13 50 0 50 -5 0 -10 -15 -10
-32z"/>
<path d="M455 1391 c3 -11 15 -52 26 -93 18 -63 64 -147 75 -136 4 5 -15 130
-21 136 -2 2 -13 -2 -25 -8 -19 -10 -20 -10 -8 10 7 11 20 23 29 25 10 3 20
17 23 30 4 14 11 25 17 25 7 0 9 -10 5 -24 -3 -14 -2 -28 4 -31 6 -3 7 1 4 9
-4 10 -1 17 7 17 34 4 56 6 87 7 42 3 41 14 -3 35 -26 12 -62 17 -131 17 -89
0 -95 -1 -89 -19z"/>
<path d="M835 1375 c-14 -13 -25 -29 -25 -35 0 -5 -7 -10 -17 -10 -15 0 -15
-1 0 -18 10 -10 17 -25 17 -33 0 -24 22 -39 56 -39 38 0 60 21 46 46 -6 11
-11 13 -16 5 -9 -15 -46 4 -46 24 0 9 -6 12 -17 9 -17 -5 -17 -5 0 9 9 8 17
18 17 22 0 5 7 17 17 27 25 28 -4 22 -32 -7z"/>
<path d="M1112 1360 c0 -14 2 -19 5 -12 2 6 2 18 0 25 -3 6 -5 1 -5 -13z"/>
<path d="M1575 1300 c-3 -5 -1 -10 4 -10 6 0 11 5 11 10 0 6 -2 10 -4 10 -3 0
-8 -4 -11 -10z"/>
<path d="M2195 1236 c-45 -47 -47 -52 -23 -44 31 11 78 62 78 84 0 8 -1 14 -2
14 -2 -1 -26 -25 -53 -54z"/>
<path d="M1110 1270 c0 -5 5 -10 11 -10 5 0 7 5 4 10 -3 6 -8 10 -11 10 -2 0
-4 -4 -4 -10z"/>
<path d="M1168 1243 c7 -3 16 -2 19 1 4 3 -2 6 -13 5 -11 0 -14 -3 -6 -6z"/>
<path d="M460 1205 c1 -36 56 -85 95 -85 20 1 20 1 0 11 -11 6 -37 29 -57 52
-31 34 -38 38 -38 22z"/>
<path d="M1497 1200 c-3 -11 0 -20 6 -20 7 0 6 -5 -3 -11 -12 -8 -11 -10 5 -7
14 2 20 11 20 27 0 31 -21 39 -28 11z"/>
<path d="M1180 1174 c0 -14 3 -15 18 -3 9 7 19 15 21 16 2 2 -5 3 -17 3 -14 0
-22 -6 -22 -16z"/>
<path d="M1421 1167 c-9 -11 -4 -22 20 -53 40 -50 41 -52 33 -31 -5 14 0 17
22 18 16 0 38 5 49 10 17 8 15 8 -7 4 -21 -4 -28 -1 -28 10 0 8 -8 15 -17 15
-9 0 -26 9 -38 20 -19 17 -24 18 -34 7z"/>
<path d="M1611 1149 c-1 -14 5 -47 13 -73 12 -38 12 -45 1 -36 -7 6 -16 26
-19 44 -4 18 -12 33 -20 33 -24 0 6 -58 59 -114 37 -40 53 -43 25 -5 -11 15
-29 61 -39 102 -11 41 -20 63 -20 49z"/>
<path d="M2091 1153 c-1 -12 4 -25 9 -28 12 -7 12 2 0 30 -8 19 -9 19 -9 -2z"/>
<path d="M2018 1149 c-49 -28 -42 -100 9 -98 16 0 22 3 16 6 -7 2 -13 13 -13
22 0 21 33 54 43 44 4 -3 7 1 7 10 0 10 -4 17 -9 17 -5 0 -15 2 -23 5 -7 2
-21 0 -30 -6z"/>
<path d="M1215 1141 c-23 -5 -26 -8 -13 -13 9 -4 24 0 35 7 10 8 16 14 13 13
-3 0 -18 -3 -35 -7z"/>
<path d="M1255 1130 c-10 -11 -24 -20 -32 -20 -7 0 -22 -9 -33 -20 l-20 -20
42 0 41 0 -18 -22 c-10 -13 -2 -6 18 14 35 36 47 71 28 82 -4 3 -16 -3 -26
-14z"/>
<path d="M323 1115 c-3 -9 -3 -18 -1 -21 3 -3 8 4 11 16 6 23 -1 27 -10 5z"/>
<path d="M1087 1068 c-5 -31 -16 -72 -27 -92 -10 -20 -14 -36 -9 -36 5 0 13 8
16 18 4 9 14 22 22 29 10 8 11 12 4 13 -9 0 -9 8 -2 29 6 16 9 44 7 63 -3 27
-5 23 -11 -24z"/>
<path d="M614 1094 c3 -7 0 -17 -7 -21 -7 -5 -18 -16 -26 -25 -19 -25 4 -23
29 2 11 11 20 16 20 11 0 -5 9 -11 20 -14 14 -3 20 -14 20 -31 0 -35 37 -36
50 -1 9 24 -4 74 -19 75 -3 1 -25 5 -49 9 -35 7 -42 6 -38 -5z"/>
<path d="M1111 1050 c0 -33 1 -34 11 -12 8 17 8 26 0 34 -9 9 -12 4 -11 -22z"/>
<path d="M1155 971 c-3 -5 -1 -12 5 -16 5 -3 10 1 10 9 0 18 -6 21 -15 7z"/>
<path d="M1562 973 c-6 -2 -10 -8 -7 -13 3 -4 -1 -7 -8 -6 -18 2 -20 -18 -2
-22 19 -4 45 15 45 34 0 14 -6 16 -28 7z"/>
<path d="M1623 955 c-3 -9 -3 -18 0 -21 9 -9 27 6 27 22 0 19 -19 18 -27 -1z"/>
<path d="M1700 961 c0 -4 23 -18 51 -31 54 -26 51 -39 -4 -21 l-32 11 24 -20
c26 -22 46 -26 56 -10 4 6 15 8 26 5 11 -4 19 -2 19 4 0 6 -6 11 -12 11 -7 0
-39 13 -70 29 -32 16 -58 26 -58 22z"/>
<path d="M1408 933 c15 -16 29 -24 31 -20 4 11 -29 47 -45 47 -7 0 -1 -12 14
-27z"/>
<path d="M1133 930 c1 -11 4 -21 7 -21 24 -6 51 -5 56 2 3 5 -4 9 -14 9 -11 0
-22 7 -26 15 -8 22 -25 18 -23 -5z"/>
<path d="M1070 916 c0 -21 21 -31 30 -15 5 7 6 17 4 21 -9 14 -34 9 -34 -6z"/>
<path d="M985 906 c-11 -7 -49 -25 -85 -40 -44 -18 -54 -25 -30 -20 35 6 150
60 150 69 0 9 -15 5 -35 -9z"/>
<path d="M1615 904 c-22 -11 -30 -12 -36 -2 -7 11 -24 -1 -132 -94 l-32 -27
26 -1 c16 0 43 17 80 50 29 27 61 50 69 50 9 0 7 -5 -8 -16 -45 -31 -86 -74
-72 -74 22 0 82 39 76 49 -3 5 2 8 12 7 11 -1 17 6 17 19 1 11 6 19 13 17 12
-2 29 25 20 33 -2 2 -17 -2 -33 -11z"/>
<path d="M1655 880 c-3 -5 -1 -10 4 -10 6 0 11 5 11 10 0 6 -2 10 -4 10 -3 0
-8 -4 -11 -10z"/>
<path d="M985 870 c-3 -5 -15 -10 -26 -10 -11 0 -17 -4 -14 -10 10 -17 34 -11
45 10 11 20 7 29 -5 10z"/>
<path d="M1072 868 c3 -7 14 -14 27 -16 14 -2 21 -9 19 -20 -2 -10 3 -16 11
-14 7 1 21 -3 30 -10 11 -9 10 -5 -3 10 -34 39 -12 32 53 -19 35 -27 69 -49
76 -49 30 0 19 16 -43 64 -89 69 -93 71 -102 56 -6 -9 -13 -9 -28 -1 -27 15
-45 14 -40 -1z"/>
<path d="M1260 851 c0 -6 4 -13 10 -16 6 -3 7 1 4 9 -7 18 -14 21 -14 7z"/>
<path d="M1960 850 c0 -5 5 -10 10 -10 6 0 10 5 10 10 0 6 -4 10 -10 10 -5 0
-10 -4 -10 -10z"/>
<path d="M1050 840 c0 -5 5 -10 10 -10 6 0 10 5 10 10 0 6 -4 10 -10 10 -5 0
-10 -4 -10 -10z"/>
<path d="M1767 843 c-3 -5 -8 -23 -12 -41 -3 -18 -11 -30 -16 -26 -5 3 -9 1
-9 -5 0 -10 48 -51 60 -51 18 0 17 31 -1 65 -11 21 -18 44 -15 51 6 15 0 19
-7 7z"/>
<path d="M2053 833 c9 -2 23 -2 30 0 6 3 -1 5 -18 5 -16 0 -22 -2 -12 -5z"/>
<path d="M1815 800 c-3 -11 -2 -28 4 -37 9 -16 10 -14 11 9 0 15 6 30 13 34 6
4 9 4 5 -1 -7 -7 1 -17 34 -43 11 -9 18 -10 23 -2 4 6 1 9 -6 8 -6 -2 -14 3
-17 11 -3 8 0 11 7 7 18 -11 13 6 -6 20 -27 20 -61 17 -68 -6z"/>
<path d="M675 783 c-11 -3 -24 -10 -30 -15 -7 -7 -2 -8 15 -3 52 15 64 30 15
18z"/>
<path d="M955 779 c3 -9 -4 -33 -16 -53 -16 -27 -19 -40 -11 -48 21 -21 54 21
48 60 -2 19 -9 39 -16 46 -8 8 -10 7 -5 -5z"/>
<path d="M1190 780 c0 -12 28 -25 36 -17 3 3 -4 10 -15 17 -15 7 -21 7 -21 0z"/>
<path d="M1335 780 c3 -5 8 -10 11 -10 2 0 4 5 4 10 0 6 -5 10 -11 10 -5 0 -7
-4 -4 -10z"/>
<path d="M900 751 c7 -13 7 -22 0 -26 -5 -3 -10 2 -10 12 0 15 -2 16 -10 3 -9
-13 -11 -13 -20 0 -6 9 -10 10 -10 3 0 -16 58 -44 66 -32 8 14 -4 59 -17 59
-6 0 -6 -6 1 -19z"/>
<path d="M1336 733 c-14 -14 -4 -31 31 -56 34 -24 53 -27 53 -8 0 12 -77 71
-84 64z"/>
<path d="M1310 655 c-11 -13 -10 -14 4 -9 9 3 16 10 16 15 0 13 -6 11 -20 -6z"/>
<path d="M1421 647 c-8 -11 -5 -16 14 -25 28 -13 43 1 25 23 -15 19 -24 19
-39 2z"/>
<path d="M1190 639 c0 -5 5 -7 10 -4 6 3 10 8 10 11 0 2 -4 4 -10 4 -5 0 -10
-5 -10 -11z"/>
<path d="M1472 608 c-9 -9 -7 -14 8 -22 25 -15 357 -267 440 -335 36 -29 64
-58 62 -64 -5 -18 26 -35 53 -29 29 5 47 25 19 21 -25 -5 -44 8 -44 29 0 10
-100 93 -256 212 -141 107 -259 196 -263 198 -4 1 -12 -3 -19 -10z"/>
<path d="M1121 528 c-285 -243 -366 -316 -363 -330 3 -20 -24 -42 -43 -34 -8
3 -15 2 -15 -3 0 -13 46 -19 64 -9 9 5 16 17 17 26 0 9 22 35 48 57 26 22 81
69 122 104 91 78 105 90 199 170 41 35 79 67 85 72 5 5 -1 9 -16 9 -16 0 -51
-22 -98 -62z"/>
<path d="M1010 308 c1 -18 25 -48 39 -48 18 0 13 21 -11 41 -25 22 -28 23 -28
7z"/>
<path d="M1711 289 c-19 -21 -20 -39 -2 -39 14 0 42 48 31 55 -5 3 -18 -4 -29
-16z"/>
<path d="M2020 233 c0 -4 9 -14 21 -21 18 -12 20 -11 17 5 -3 17 -38 32 -38
16z"/>
<path d="M701 216 c-9 -10 -9 -16 -1 -21 13 -8 42 14 34 26 -8 13 -20 11 -33
-5z"/>
<path d="M875 220 c-10 -16 18 -43 40 -38 14 3 13 6 -8 26 -17 17 -27 20 -32
12z"/>
<path d="M1856 211 c-14 -15 -14 -19 -3 -24 17 -6 37 11 37 30 0 18 -14 16
-34 -6z"/>
</g>
</svg>
